<svg width="512" height="512" viewBox="0 0 512 512" fill="none" xmlns="http://www.w3.org/2000/svg">
<path d="M256 508.068C397.385 508.068 512 394.333 512 254.034C512 113.735 397.385 0 256 0C114.615 0 0 113.735 0 254.034C0 394.333 114.615 508.068 256 508.068Z" fill="#19181A"/>
<path d="M175.068 321.969H119.068V289.015H183.533L201.765 217.077H144.029V183.908H209.796L232.369 94.5231H267.097L244.524 183.908H297.702L320.492 94.5231H355.22L332.43 183.908H385.391V217.077H324.399L306.167 289.015H360.43V321.969H297.702L275.128 411.138H240.4L263.191 321.969H209.796L187.005 411.138H152.494L175.068 321.969ZM271.656 289.015L289.671 217.077H236.493L218.261 289.015H271.656Z" fill="#FFD866"/>
</svg>
